<?xml version="1.0" encoding="UTF-8"?>
<svg id="Layer_1" xmlns="http://www.w3.org/2000/svg" viewBox="0 0 32.1 32.1">
  <defs>
    <style>
      .cls-1 {
        fill: #fff;
      }

      .cls-1, .cls-2, .cls-3 {
        stroke: #231f20;
        stroke-miterlimit: 10;
        stroke-width: .1px;
      }

      .cls-2 {
        fill: #dda50f;
      }

      .cls-3 {
        fill: #950495;
      }
    </style>
  </defs>
  <ellipse class="cls-3" cx="16.52" cy="16.05" rx="15.53" ry="16"/>
  <ellipse class="cls-1" cx="16.52" cy="16.05" rx="13.98" ry="14.4"/>
  <path class="cls-2" d="M25.22,6.99c.24-.29.61-.67,1.09-.69.48-.02.85.33.99.46,1.02.97,1.46,3.37.53,5.12-.89,1.67-1.86,2.53-1.86,2.53-.15.13-.61.51-.71,1.12-.05.3,0,.55.02.65,1.26,5.62,2.15,7.89,2.15,7.89,1.05,2.68,1.42,3.36,1.03,4.06-.46.82-1.69,1.2-2.61.93-1.18-.35-1.68-1.72-2.45-3.84-.76-2.08-1.03-3.95-1.06-4.13-.37-2.61-.01-3.73-.75-4.19-.66-.41-1.82-.05-2.21.61-.2.35-.11.64,0,1.92.06.64.06,1.28.12,1.92.56,5.87.45,6.64-.06,7.23-.68.79-1.95,1.13-2.7.7-.65-.36-.84-1.23-.96-3.78-.23-4.67-.03-8.93-.03-8.93.14-4.23.11-4.76-.37-5.31-1.06-1.21-3.06-1.09-7.05-.83-1.95.12-3.93-.1-5.87.16-.67.09-1.55.24-2.02-.29-.54-.6-.41-1.93.25-2.5.22-.19.49-.27,1.86-.3,1.02-.02,1.54-.03,2.08.02.9.08,1.53.04,5.37-.16,7.04-.36,7.83-.75,8.51.06.99,1.19.97,3.98.96,4.86-.01,1.07-.16,1.72.19,1.95.58.38,2.21-.63,3.17-2.05,1.13-1.68,1.15-3.69,2.39-5.22Z"/>
  <path class="cls-2" d="M.67,12.21c.64-.52,1.51-.25,2.73-.13,1.08.11,2.17-.06,3.26-.1,5.13-.15,6.42-.67,7.24.32.33.4.71,1.16.47,1.76-.46,1.13-3.4,1.09-9.26,1.02-.45,0-.62-.01-.93,0-2.11.08-2.85.66-3.48.26-.29-.19-.63-.63-.65-1.86.06-.41.21-.94.62-1.28Z"/>
  <path class="cls-2" d="M9.99,7.38c1.39-.07,2.52-.16,3.26-.22,1.71-.15,4.28-.41,7.24-.13.63.06.96.11,1.3.35,1.18.82.98,2.73,1.03,5.06.11,5.61,1.51,7.27.28,8.45-.88.84-2.62.97-3.32.26-.36-.37-.39-.9-.4-1.34-.09-2.77.05-6.13.06-6.5.07-1.61.05-2.99-.69-3.71-.1-.1-.41-.39-.86-.45-.65-.09-1.18.35-1.34.48-.87.72-.79,2.24-.71,5.12.16,5.75-.06,2.14.06,5.98.08,2.66.15,3.2-.31,3.78-1.09,1.35-3.92,1.38-4.91.13-.37-.47-.65-1.33-.34-1.82.04-.07.11-.15.78-.51.91-.49,1.15-.54,1.34-.83.21-.33.17-.71.16-.93-.14-1.59-.31-5.4-.34-6.43-.05-2.05.2-3.3-.5-3.71-.4-.23-.72.03-1.3-.32-.46-.27-1.03-.89-.96-1.66.04-.53.36-.89.5-1.02Z"/>
</svg>