<?xml version="1.0" encoding="UTF-8"?>
<svg xmlns="http://www.w3.org/2000/svg" viewBox="0 0 1032 1001">
  <defs>
    <style>
      .cls-1, .cls-2, .cls-3, .cls-4, .cls-5, .cls-6, .cls-7, .cls-8, .cls-9, .cls-10, .cls-11, .cls-12, .cls-13, .cls-14, .cls-15, .cls-16, .cls-17, .cls-18, .cls-19, .cls-20, .cls-21, .cls-22 {
        stroke-miterlimit: 10;
      }

      .cls-1, .cls-2, .cls-4, .cls-5, .cls-6, .cls-7, .cls-8, .cls-10, .cls-11, .cls-12, .cls-13, .cls-14, .cls-15, .cls-16, .cls-17, .cls-18, .cls-19, .cls-20, .cls-22 {
        stroke: #000;
      }

      .cls-1, .cls-23 {
        fill: #f58d56;
      }

      .cls-24 {
        fill: #e0e610;
      }

      .cls-2 {
        fill: #5991a0;
      }

      .cls-25 {
        fill: #d42121;
      }

      .cls-3 {
        fill: #950495;
      }

      .cls-3, .cls-9, .cls-21 {
        stroke: #231f20;
      }

      .cls-4 {
        fill: #fccccc;
      }

      .cls-5 {
        fill: #eb3742;
      }

      .cls-6 {
        fill: #9b2a55;
      }

      .cls-7 {
        stroke-width: .5px;
      }

      .cls-7, .cls-11 {
        fill: #eca75d;
      }

      .cls-8, .cls-22 {
        fill: #e7e74b;
      }

      .cls-26 {
        fill: #020202;
      }

      .cls-9, .cls-27, .cls-12 {
        fill: #fff;
      }

      .cls-10, .cls-28 {
        fill: #facbcb;
      }

      .cls-29 {
        fill: #f5c7c7;
      }

      .cls-30 {
        fill: #e13540;
      }

      .cls-13 {
        fill: #6e6666;
      }

      .cls-31 {
        fill: #00adee;
      }

      .cls-14, .cls-32 {
        fill: #256225;
      }

      .cls-33 {
        fill: #dca40f;
      }

      .cls-15 {
        fill: #fdc325;
      }

      .cls-34 {
        fill: #03aeee;
      }

      .cls-35 {
        fill: #f9caca;
      }

      .cls-16 {
        fill: #0000fe;
      }

      .cls-36 {
        fill: #a76509;
      }

      .cls-17 {
        fill: #21cb21;
      }

      .cls-37 {
        fill: #dda510;
      }

      .cls-38 {
        fill: #050301;
      }

      .cls-39 {
        fill: #ededed;
      }

      .cls-18 {
        fill: #ea3641;
      }

      .cls-19 {
        fill: #fefe00;
      }

      .cls-20 {
        fill: #325a6f;
      }

      .cls-21 {
        fill: #dda50f;
        stroke-width: 3px;
      }

      .cls-22 {
        stroke-width: .25px;
      }
    </style>
  </defs>
  <g id="Layer_2">
    <g id="Layer_5">
      <circle class="cls-3" cx="531.5" cy="500.5" r="500"/>
      <circle class="cls-9" cx="531.5" cy="500.5" r="450"/>
    </g>
  </g>
  <g id="Layer_3">
    <path class="cls-21" d="M811.5,217.5c7.71-9.2,19.48-20.96,35.08-21.48,15.58-.52,27.49,10.41,31.92,14.48,32.83,30.16,46.93,105.22,17,160-28.6,52.33-60,79-60,79-4.84,4.11-19.53,16.02-23,35-1.74,9.5-.02,17.25.71,20.4,40.72,175.62,69.29,246.6,69.29,246.6,33.68,83.66,45.74,104.9,33,127-14.77,25.62-54.31,37.52-84,29-38.09-10.93-54.17-53.79-79-120-24.38-65.01-33.18-123.34-34-129-11.87-81.52-.36-116.64-24-131-21.25-12.91-58.65-1.62-71,19-6.47,10.8-3.64,20.13,0,60,1.82,19.96,2.04,40.05,4,60,17.98,183.36,14.34,207.49-2,226-21.85,24.75-62.67,35.23-87,22-20.8-11.31-27.05-38.59-31-118-7.26-145.81-1-279-1-279,4.63-132.12,3.46-148.81-12-166-34.11-37.94-98.4-33.96-227-26-62.9,3.89-126.52-3.22-189,5-21.53,2.83-49.8,7.41-65-9-17.43-18.81-13.27-60.44,8-78,7.2-5.95,15.71-8.59,59.99-9.5,32.98-.68,49.46-1.01,67.01.5,29.05,2.5,49.4,1.22,173-5,226.47-11.4,252.12-23.36,274,2,32,37.09,31.07,124.51,30.77,152-.36,33.46-5.07,53.88,6.23,61,18.76,11.82,71.16-19.59,102-64,36.39-52.4,37.06-115.29,77-163Z"/>
    <path class="cls-21" d="M21.5,380.5c20.63-16.3,48.67-7.81,88-4,34.85,3.38,70-2.01,105-3,165.22-4.69,206.58-20.92,233,10,10.66,12.48,22.87,36.26,15,55-14.88,35.42-109.53,34.15-298.01,31.95-14.55-.17-19.87-.34-29.99.05-67.93,2.62-91.83,20.48-112,8-9.37-5.8-20.42-19.68-21-58,1.87-12.8,6.62-29.43,20-40Z"/>
    <path class="cls-21" d="M321.5,229.5c44.85-2.29,81.12-5.03,105-7,55.16-4.55,137.72-12.75,233-4,20.35,1.87,30.97,3.57,42,11,37.84,25.49,31.52,85.39,33,158,3.58,175.45,48.66,227.18,9,264-28.4,26.37-84.32,30.29-107,8-11.72-11.52-12.52-28.03-13-42-2.97-86.54,1.53-191.72,2-203,2.1-50.39,1.48-93.56-22.23-115.78-3.34-3.13-13.09-12.27-27.77-14.22-20.89-2.77-37.87,10.88-43,15-27.92,22.44-25.59,70.09-23,160,5.17,179.73-1.93,66.74,2,187,2.71,83.03,4.89,100.03-10,118-35.09,42.34-126.18,43.22-158,4-11.87-14.63-20.87-41.48-11-57,1.32-2.07,3.4-4.62,25-16,29.27-15.42,37.03-16.83,43-26,6.8-10.44,5.62-22.25,5-29-4.55-49.64-10.13-168.78-11-201-1.73-63.96,6.54-103.18-16-116-12.74-7.24-23.25.8-42-10-14.88-8.57-33.05-27.91-31-52,1.41-16.53,11.69-27.79,16-32Z"/>
  </g>
  <g id="Layer_4">
    <path class="cls-12" d="M273.02,784.6c-1.56,2.19-2.57,3.79-2.92,6.06-.22,1.44-.07,2.45.34,4.86,1.58,9.44,1.74,9.15,1.74,10.65,0,2.97-.62,2.83-.97,8.39-.22,3.49.63,3.61.64,6.59.02,6.22-2.63,8.05-1.41,10.01,1.17,1.88,4.19,1.13,14.32.93,9.5-.19,11.49.38,12.36-1.06,1.79-2.98-5.65-7.16-7.68-16.95-1.34-6.48.49-7.46.96-15.61.64-11.09-6.11-22.42-10.33-22.24-1.11.05-3.09,2.82-7.04,8.38Z"/>
    <path class="cls-29" d="M271.55,795.71c-1.16,2.11,1.12,3.71,1.41,10.79.17,4.15-.56,5.03.37,6.38,2.6,3.82,12.78,3.48,15.32-.7,1.22-2-.23-3.39.57-9.2.57-4.14,1.48-4.69.94-6.05-1.89-4.76-16.11-5.75-18.61-1.22Z"/>
    <path class="cls-2" d="M273.2,718.09c-2.52,1.97-4.09,4.85-5.79,24.18-1.09,12.39-1.66,19.22-1.08,29.37.67,11.64,1.48,23.84,7.33,25.87,1.93.67,2.88-.3,9.2.38,4.66.51,5.92,1.03,6.98.77.27-.07.41-.13.55-.21,1.66-1,1.02-4.74.85-6-.08-.57.4,2.69,1.02-12.98.44-11.05.46-20.73.7-26.81.97-24.48,4.39-30.1-.23-34.41-4.78-4.45-14.27-4.26-19.54-.16Z"/>
    <path class="cls-6" d="M271.14,821.61c-1.91.58-1.6,2.67-4.69,8.61-2.67,5.13-4.62,6.87-3.76,8.61.19.38.6.68,4.34,2.09,4.67,1.76,7.26,2.73,9.29,1.57,1.8-1.04,1.86-3.01,3.19-3.05,1.21-.04,2.01,1.57,2.93,2.78,1.89,2.48,4.46,3.32,9.59,5,6.37,2.08,10.95,3.58,14.13,1.14,2.44-1.86,2.83-5.09,2.9-6.06.13-1.88-.34-3.84-3.21-8.18-2.34-3.54-8.24-12.48-11.63-11.24-1.37.5-.8,2.1-2.56,3.49-3.27,2.57-9.34.25-12.08-.79-5.32-2.03-6.3-4.61-8.45-3.96Z"/>
    <ellipse class="cls-12" cx="295.2" cy="830.47" rx="2.72" ry="1.64" transform="translate(-371.23 253.67) rotate(-29.56)"/>
    <ellipse class="cls-12" cx="300.71" cy="827.25" rx="2.72" ry="1.64" transform="translate(-368.93 255.98) rotate(-29.56)"/>
    <path class="cls-12" d="M224.11,785.22c1.31,2.24,2.15,3.86,2.23,6.01.05,1.37-.22,2.28-.92,4.47-2.72,8.57-2.85,8.28-3.03,9.67-.36,2.76.29,2.71-.02,7.93-.2,3.28-1.07,3.28-1.44,6.04-.76,5.78,1.7,7.82.22,9.49-1.41,1.6-4.37.51-14.58-1-9.58-1.41-11.66-1.14-12.37-2.6-1.45-3,6.57-5.92,9.79-14.76,2.13-5.85.4-7,.9-14.64.68-10.39,8.86-20.04,13.11-19.33,1.12.19,2.78,3.03,6.11,8.71Z"/>
    <path class="cls-29" d="M224.27,795.75c.92,2.12-1.58,3.3-2.71,9.85-.67,3.84-.04,4.75-1.13,5.89-3.09,3.21-13.33,1.57-15.4-2.64-.99-2.02.64-3.12.52-8.63-.08-3.92-.93-4.56-.22-5.75,2.48-4.18,16.97-3.24,18.95,1.29Z"/>
    <path class="cls-2" d="M247.13,717.69c2.56,3.37.44,9.56-3.8,21.96-3.15,9.19-4.87,11.08-7.54,20.22-1.59,5.45-1.03,4.96-3.36,14.18-4.31,17.06-7.31,22.51-10.51,23.09-2.03.37-2.88-.66-9.35-.84-4.77-.14-6.1.19-7.15-.19-.27-.1-.4-.17-.53-.27-1.55-1.15-.47-4.54-.14-5.69.02-.05.02-.07.02-.07-.01,0-.03.01-.04.01-.39.11,3.13-25.86,3.13-25.86,1.11-8.22,1.23-9.16,1.75-11.35,1.16-4.88,2.4-7.78,5.53-15.42,6.8-16.62,6.7-17.03,8.15-18.33,6.79-6.11,19.81-6.76,23.85-1.45Z"/>
    <path class="cls-6" d="M221.58,819.87c1.87.79,1.3,2.69,3.71,8.62,2.08,5.12,3.84,6.99,2.76,8.5-.24.33-.69.55-4.64,1.38-4.94,1.03-7.67,1.59-9.58.25-1.7-1.2-1.52-3.04-2.86-3.25-1.22-.19-2.22,1.2-3.29,2.2-2.21,2.06-4.91,2.51-10.29,3.4-6.68,1.1-11.49,1.9-14.42-.78-2.25-2.05-2.25-5.1-2.2-6.01.09-1.76.8-3.52,4.22-7.19,2.79-2.99,9.83-10.53,13.1-8.93,1.32.65.55,2.06,2.17,3.57,3,2.81,9.41,1.45,12.3.83,5.62-1.19,6.92-3.46,9.01-2.58Z"/>
    <ellipse class="cls-12" cx="196.2" cy="824.98" rx="1.57" ry="2.73" transform="translate(-603.35 542.5) rotate(-57.16)"/>
    <ellipse class="cls-12" cx="191.01" cy="821.27" rx="1.57" ry="2.73" transform="translate(-602.61 536.44) rotate(-57.16)"/>
    <path class="cls-20" d="M215.88,641.19c-5.55,7.52-1.67,10.01-7.56,32.03-7.79,29.15-19.14,41.82-13.37,49,2.18,2.71,5.41,2.9,16.86,3.2,39.38,1.03,40.73.17,52.49.65,2.37.1,19.02.81,40.5-.71,6.54-.46,8.28-.76,9.68-2.3,9.24-10.14-20.66-46.99-20.22-66.18.04-1.87-.03-9.42-3.95-17.52-.45-.93-1.04-1.84-1.86-2.84-14.36-17.6-57.56-15.66-72.56,4.67Z"/>
    <path class="cls-24" d="M229.08,647.58c-.02-.17-.14-.89.27-1.36.11-.13.4-.4.61-.35.71.15.51,3.85.21,9.79-.28,5.63-.25,5.4-.27,5.59-.64,5.91-1.04,10.73-4.42,13.25-1.16.86-3.82,1.4-9.16,2.48-6.17,1.25-6.96.7-7.1.36-.08-.2.03-.43.05-.49.37-.82,2.05-.77,3.01-.78.13,0,2.05-.25,5.88-.73,2.6-.33,4.45-.57,5.83-1.35,3.86-2.19,4.24-8.57,4.47-12.46.51-8.52.76-12.78.6-13.93Z"/>
    <path class="cls-24" d="M223.5,645.64c.21-.2.58-.39.83-.28.79.33.56,3.6-.07,3.72-.42.08-1.12-1.26-1.1-2.41,0-.28.02-.72.34-1.03Z"/>
    <path class="cls-24" d="M223.73,652.91c.21-.2.58-.39.83-.28.79.33.56,3.6-.07,3.72-.42.08-1.12-1.26-1.1-2.41,0-.28.02-.72.34-1.03Z"/>
    <path class="cls-24" d="M223.88,662.14c.26-.13.67-.19.88-.01.65.56-.59,3.6-1.22,3.51-.42-.06-.68-1.54-.3-2.63.09-.26.24-.68.64-.87Z"/>
    <path class="cls-24" d="M221.03,668.42c.22.14.49.43.5.7.04.83-2.43,1.53-2.74.97-.21-.37.52-1.4,1.37-1.7.2-.07.53-.18.87.03Z"/>
    <path class="cls-24" d="M215.53,671.13c.23.2.45.57.34.82-.36.8-4.13.64-4.27.02-.1-.42,1.42-1.15,2.75-1.15.32,0,.82,0,1.19.31Z"/>
    <path class="cls-24" d="M244.39,646.72c.19-.21.55-.42.81-.34.81.27.8,3.56.19,3.71-.41.1-1.2-1.18-1.26-2.33-.01-.28-.03-.72.27-1.05Z"/>
    <path class="cls-24" d="M245.93,655.67c.13-.26.41-.56.69-.55.85.04,1.74,3.2,1.19,3.52-.37.21-1.48-.8-1.85-1.9-.09-.26-.22-.68-.03-1.08Z"/>
    <path class="cls-24" d="M250.41,663.9c-.1-.34-.08-.8.2-.91.86-.32,4.46,2.84,4.2,3.44-.17.4-2.13-.27-3.44-1.33-.31-.26-.81-.67-.96-1.2Z"/>
    <path class="cls-24" d="M285.92,658.64c.13-.26.41-.56.69-.55.85.04,1.74,3.2,1.19,3.52-.37.21-1.48-.8-1.85-1.9-.09-.26-.22-.68-.03-1.08Z"/>
    <path class="cls-24" d="M290.41,666.49c-.18-.34-.26-.82,0-.95.86-.42,5.43,2.45,5.28,3.08-.1.43-2.35-.05-3.99-1.01-.39-.23-1.02-.6-1.3-1.13Z"/>
    <path class="cls-24" d="M279.15,643.39c-.01-.57-.05-2.15.22-2.19.06,0,.11.07.19.16.51.52,1.34.12,1.72.41.46.35,0,1.53-.22,2.53-.2.91-.1,2.03.11,4.25.64,6.93,1.3,13.99,5.57,18.72,4.65,5.15,11.63,5.39,11.42,6.24-.15.57-3.34.62-6.29-.41-6.11-2.13-8.9-8.07-9.82-10.04-1.31-2.79-1.72-5.75-2.55-11.67-.18-1.26-.23-3.51-.34-8.01Z"/>
    <path class="cls-24" d="M258.89,647.25c.28-.89,1.07-3.35,1.28-3.27.05.02.04.17.06.35.11,1.07.93.88,1.06,1.52.16.77-.79,2.37-1.47,3.81-.62,1.31-1.11,3.09-2.1,6.64-3.08,11.06-6.22,22.31-5.5,31.83.78,10.36,5.81,14.32,5.22,15.52-.4.81-2.78-.76-4.43-3.87-3.41-6.44-2.42-17.06-2.09-20.58.47-4.98,1.68-9.78,4.11-19.37.52-2.04,1.63-5.55,3.86-12.57Z"/>
    <path class="cls-24" d="M307.63,703.06c.65.11,1.59.85,2.89.7.58-.07.96-.26,1.34-.04.64.37.88,1.64.44,2.04-.42.38-1.24-.19-3.21-.82-.6-.19-1.52-.39-3.35-.79,0,0-2.62-.56-5.8-.98-10.07-1.32-18.07-2.37-27.06.11-4.45,1.23-3.53,1.77-6.98,2.47-7.9,1.6-11.56-1.47-19.35-1.6-8.09-.13-6.99,3.14-15.59,3.49-11.06.44-13.45-4.95-22.76-2.97-5.25,1.11-10.3,4.06-10.91,3.03-.27-.46.52-1.4.84-1.78,2.31-2.75,6.2-3.07,7.66-3.16,8.54-.49,14.57,2.57,23.02,2.69,9.74.13,10.09-3.83,20.46-3.13,7.06.48,7.57,2.36,13.78,2.12,7.89-.31,8.22-3.85,16.95-4.29,4.22-.21,8.37.24,16.67,1.14,1.76.19,4.83.71,10.96,1.76Z"/>
    <path class="cls-24" d="M309.85,712.77c.68.11,1.68.86,3.05.71.61-.07,1.01-.26,1.42-.03.68.37.93,1.64.47,2.04-.44.38-1.31-.2-3.39-.83-.63-.19-1.6-.39-3.54-.8,0,0-2.76-.57-6.11-1-10.62-1.36-19.05-2.44-28.52.01-4.68,1.21-3.71,1.76-7.35,2.45-8.32,1.57-12.19-1.52-20.4-1.67-8.53-.16-7.36,3.12-16.42,3.43-11.65.4-14.19-5-24-3.06-5.53,1.09-10.84,4.02-11.49,2.99-.29-.46.54-1.4.88-1.78,2.43-2.74,6.52-3.05,8.06-3.13,9-.46,15.37,2.63,24.27,2.78,10.27.17,10.62-3.79,21.55-3.05,7.45.5,7.99,2.39,14.53,2.17,8.32-.28,8.65-3.82,17.86-4.23,4.45-.19,8.82.27,17.58,1.2,1.86.2,5.09.73,11.56,1.8Z"/>
    <path class="cls-5" d="M218.06,528.56c-8.92,8.21-8.76,21.45-7.64,42.37,1,18.89,2.67,42.14,5.58,68.87,24.86-2.14,49.71-4.27,74.57-6.41,2.32-32.38,4.77-57.38,6.53-73.91,1.77-16.6,2.94-25.64-3.05-32.51-9.56-10.96-30.29-8.33-51.45-5.64-12.89,1.64-19.44,2.55-24.53,7.23Z"/>
    <path class="cls-12" d="M215.28,635.21c.01.23.15,3.27.65,4.51,1.32,3.3,9.06,3.66,12.15,3.78,9.66.36,14.49.54,20.67.26,0,0,33.28-1.54,39.08-6.56.36-.31.62-.68.62-.68.36-.51.45-.92.63-1.43.49-1.42.96-1.6.84-1.96-.31-.98-3.95-.6-3.95-.6-11.15,1.18-22.45.43-33.6,1.66-26.99,2.99-12.68.38-26.6,1.25-2.06.13-3.97.29-6.13-.67-1.99-.89-3.29-2.32-4.03-1.85-.21.13-.42.45-.34,2.28Z"/>
    <path d="M262.68,634.81c.15-.31.28-.41.37-.44.67-.19,1.46,3.12.61,5.99-.28.96-.72,1.79-.83,1.74-.17-.07.64-2.23.55-4.46-.05-1.31-.39-2.23-.71-2.83Z"/>
    <path d="M246.43,642.81c-.19.35-.33.48-.43.51-.7.21-1.08-3.69.12-7.04.4-1.12.95-2.08,1.05-2.02.16.09-.93,2.6-1.11,5.22-.11,1.53.12,2.62.37,3.34Z"/>
    <rect x="252.44" y="637.04" width="3.48" height="2.8" transform="translate(-128.55 67.71) rotate(-12.14)"/>
    <path class="cls-33" d="M225.63,615.82c.56,1.05.56,2.08.54,2.55.23,0,.93.04,1.56.59.12.11.96.85.87,1.89-.12,1.31-1.61,1.84-1.74,1.89-.75.26-1.41.08-1.71-.02-.62,4.68-.94,8.15-.94,9.06,0,.79,0,1.19.18,1.61.14.32.31.53.23.76-.09.27-.46.33-.86.42-1.61.37-1.85.88-2.28.63-.55-.32-.56-1.4-.55-1.79.3-1.27.57-2.79.7-4.53.17-2.45,0-4.57-.25-6.22-1.41.87-3.04.35-3.63-.82-.44-.88-.26-2.09.4-2.88.77-.92,1.86-.87,2.01-.86-.06-.32-.24-1.44.35-2.57.09-.17.94-1.74,2.43-1.77,1.58-.03,2.5,1.69,2.69,2.05ZM224.16,616.12c-.11-1.02-.44-1.32-1.44-1.27-.7.03-1,.57-.72,1.28.11.28.2.57.34.84.14.26.29.65.5.7.24.07.65-.08.8-.29.25-.35.36-.83.53-1.25ZM219.86,619.44c-.85,0-1.21.37-1.24,1.22-.02.62.59,1.31,1.19,1.33.59.02.79-.38.6-2.45,0-.11-.19-.09-.19-.09-.16-.05-.3-.02-.36,0ZM226.89,619.61c-.73,0-1.42.69-1.43,1.4,0,.66.32.97.91.98.64,0,1.23-.79,1.25-1.64.02-.63-.3-.77-.73-.73Z"/>
    <path class="cls-10" d="M182.33,680.3c-.45,1.05-2.39,5.61-6.33,6.27-3.94.65-7.26-3.04-7.91-3.81-4.31-5.07-2.99-12.39-1.91-18.38,1.08-5.97,1.73-9.56,4.95-11.87,5.54-3.97,13.44-.4,14.17-.06.54,1.6,1.38,4.03,2.5,6.95,2.67,7,4.06,9.37,3.03,12.18-.63,1.71-2.14,3.55-3.5,3.41-2.49-.25-3.52-7.03-4.13-6.9-.6.13,1.62,6.38-.87,12.22Z"/>
    <path d="M167.81,675.66c-.22-.21-.38-.25-.5-.24-.82.11-1.36,3.36,0,5.56.46.74,1.09,1.29,1.21,1.2.19-.14-1.04-1.71-1.22-3.73-.1-1.18.2-2.14.51-2.81Z"/>
    <path d="M172.16,677.62c-.34-.27-.57-.31-.72-.28-1.07.23-1.04,4.8,1.26,7.73.77.98,1.73,1.69,1.87,1.56.23-.21-1.77-2.28-2.45-5.06-.4-1.63-.22-2.98.04-3.94Z"/>
    <path d="M177.54,671.32c-.34-.56-.57-.74-.72-.78-1.07-.29-1.04,5.96,1.27,11.25.78,1.77,1.74,3.27,1.88,3.17.23-.16-1.78-4.1-2.47-8.27-.4-2.44-.22-4.19.03-5.36Z"/>
    <path class="cls-10" d="M185.88,655.23c-.52,2.19-1.55,6.25-4.95,7.84-2.7,1.27-6.39,1.21-8.95-1.09-2.39-2.16-2.53-5.17-2.55-5.8-.23-3.99-.47-9.36-.55-15.69-.13-9.61.16-16.35.67-27.74.66-14.7.98-22.17,2.27-27.49,1.99-8.23,4.9-14.72,7.15-19.06,6.98,1.09,13.96,2.18,20.95,3.27-.35,2.74-.98,6.82-2.2,11.7-1.24,4.97-2.54,8.52-2.95,9.68-2.83,8.02-5.45,20.58-6.22,31.41-.77,10.82.24,20.83-2.67,32.97Z"/>
    <path class="cls-28" d="M184.59,655.87c.5.23,1.11.52,1.45,1.16,1.12,2.1-1.31,6.52-4.95,8.15-4.78,2.13-9.49-1.74-9.71-1.93-.48-.41-4.04-3.5-3.19-6.68.4-1.5,1.62-2.37,2.14-2.74,3.83-2.68,9.15-.27,14.25,2.04Z"/>
    <path class="cls-18" d="M198.54,574.47c-3.2-1.11-5.87-1.72-7.73-2.07-2.8-.53-6.61-1.01-9.51-1.37-4.3-.54-4.42-.49-4.68-.76-3.27-3.45,9.16-18.66,19.3-31.09.31-.38,4.35-3.95,10.47-7.54,4.45-2.61,11.5-6.75,13.75-4.73,1.82,1.64-.24,6.71-1.37,9.39-3.2,7.58-9.12,20.12-20.22,38.17Z"/>
    <path class="cls-10" d="M329.16,673.21c.45,1.05,2.39,5.61,6.33,6.27,3.94.65,7.26-3.04,7.91-3.81,4.31-5.07,2.99-12.39,1.91-18.38-1.08-5.97-1.73-9.56-4.95-11.87-5.54-3.97-13.44-.4-14.17-.06-.54,1.6-1.38,4.03-2.5,6.95-2.67,7-4.06,9.37-3.03,12.18.63,1.71,2.14,3.55,3.5,3.41,2.49-.25,3.52-7.03,4.13-6.9.6.13-1.62,6.38.87,12.22Z"/>
    <path d="M343.68,668.57c.22-.21.38-.25.5-.24.82.11,1.36,3.36,0,5.56-.46.74-1.09,1.29-1.21,1.2-.19-.14,1.04-1.71,1.22-3.73.1-1.18-.2-2.14-.51-2.81Z"/>
    <path d="M339.33,670.53c.34-.27.57-.31.72-.28,1.07.23,1.04,4.8-1.26,7.73-.77.98-1.73,1.69-1.87,1.56-.23-.21,1.77-2.28,2.45-5.06.4-1.63.22-2.98-.04-3.94Z"/>
    <path d="M333.95,664.23c.34-.56.57-.74.72-.78,1.07-.29,1.04,5.96-1.27,11.25-.78,1.77-1.74,3.27-1.88,3.17-.23-.16,1.78-4.1,2.47-8.27.4-2.44.22-4.19-.03-5.36Z"/>
    <g>
      <path class="cls-35" d="M339.49,640.59c-.53-4.24-.57-6.67-.73-8.73-.66-8.73-4.49-25.82-8.33-43.78-2.57-11.99-3.08-14.75-6.07-16.87-7.26-5.16-19.24.36-23.42,2.47,1.91,5.02,3.39,9.12,4.33,11.81,3.5,9.93,10.96,32.11,17.39,61.54.43,1.97.76,3.55.95,4.45,12.54-1.49,15.77-4.23,16.29-6.54.17-.77-.02-1.18-.42-4.36Z"/>
      <path class="cls-26" d="M323.23,652.04l-.09-.45c-.19-.9-.52-2.48-.95-4.45-4.58-20.97-10.59-42.23-17.37-61.48-1.37-3.9-2.83-7.87-4.33-11.8l-.16-.42.4-.2c5.96-3.02,17-7.37,23.93-2.43,3.06,2.18,3.64,4.86,6.05,16.15l1.51,7.03c3.32,15.46,6.46,30.06,7.05,37.84.04.54.07,1.11.11,1.73.1,1.72.23,3.87.61,6.98h0c.13,1.03.23,1.76.31,2.32.17,1.2.23,1.6.1,2.21-.77,3.42-6.24,5.68-16.72,6.93l-.45.05ZM301.58,573.93c1.44,3.8,2.85,7.63,4.18,11.4,6.8,19.29,12.82,40.59,17.4,61.6.37,1.67.66,3.07.86,4.01,9.45-1.17,14.77-3.27,15.41-6.1.09-.42.06-.68-.11-1.85-.08-.56-.19-1.3-.32-2.34h0c-.39-3.14-.52-5.3-.62-7.04-.04-.61-.07-1.17-.11-1.71-.59-7.72-3.72-22.28-7.03-37.71l-1.51-7.03c-2.35-10.98-2.9-13.59-5.65-15.54-6.35-4.52-16.66-.6-22.5,2.31Z"/>
    </g>
    <path class="cls-35" d="M339.39,644.61c-2.67-3.16-14.5.2-15.31,5.79-.27,1.87.75,3.61,1.54,4.67,7.64-.2,13.32-3.07,14.25-7.08.07-.32.51-2.2-.48-3.38Z"/>
    <path class="cls-5" d="M325.5,571.61c-8.28,1.33-16.55,2.65-24.83,3.98-3.65-9-6.03-16.71-7.57-22.37-5.12-18.81-2.83-21.56-1.72-22.43,2.39-1.88,6.32-.57,8.85.27,8.57,2.86,13.16,10.1,16.44,15.42,2.91,4.73,7.21,13.16,8.84,25.13Z"/>
    <path class="cls-4" d="M192.15,481.32c2.96.45,4.42,4.49,5.67,6.98,2.52,5.02,6.18,7.61,13.5,12.81,4.19,2.98,15.28,10.84,29.26,11.19,2.97.07,6.64-.1,7.52,1.57,1.42,2.7-4.64,6.18-5.47,13.73-.12,1.06-.78,7.05,3.04,11.06,5.12,5.37,14.16,2.81,15.51,2.43.95-.27,10.01-2.83,11.28-8.98,1.18-5.71-5.27-10.02-3.45-13.13,1.25-2.15,5.23-1.64,8.76-1.66,8.43-.05,14.3-3.11,25.02-8.7,1.42-.74,12.67-6.71,22.9-17.3,4.39-4.55,10.73-11.11,11.33-15.23.06-.39.24-2,1.45-2.98,1.24-1,2.84-.76,4.04-.76,0,0,2.52.01,8.02-3.2,8.01-4.68,13.11-25.67,6.46-30.93-1.1-.87-3.07-1.74-5.22-1.82-3.65-.13-6.04,2.11-6.92,2.43-10.46,3.82-37.46-98.54-75.9-106.31-41.59-8.41-84.18,96.35-89.5,116.38-2.84,10.71-2.03,23.57,2,29,.85,1.15,2.44,4.03,5.18,4.44,2.33.34,3.45-1.34,5.52-1.02Z"/>
    <path d="M180.98,456.96c-.52,1.61,2.99,2.64,4.19,6.32,1.3,4-1.13,8.08-.61,8.28.18.07.65-.36,2.08-3.02.44-1.97.7-4.72-.73-7.01-1.35-2.16-3.44-2.72-3.2-3.68.26-1.09,3.24-1.66,5.63-.89,1.31.43,2.22,1.2,2.75,1.73.75-.45.92-.83.92-1.11-.01-1.15-3.18-2.24-5.92-2.26-.55,0-4.55-.02-5.08,1.63Z"/>
    <path d="M356.95,445.61c.52,1.89-5.43,3.08-7.56,8.62-.83,2.16-.95,4.64-1.41,4.62-.28-.01-.47-.94-.58-1.78.13-1.45.51-3.44,1.68-5.4,2.15-3.58,5.8-4.44,5.48-5.53-.25-.84-2.6-1.06-4.32-.59-1.33.37-2.22,1.12-2.65,1.56-.72-.41-.89-.75-.89-1,.01-1.04,3.05-2.12,5.72-2.03.76.03,4.17.14,4.55,1.53Z"/>
    <path d="M268.53,473.27c1.54.89,2.62,1.92,3.29,2.64.19.17.2.46.05.62-.12.12-.32.15-.49.04-.37-.37-.9-.87-1.58-1.4-1.43-1.1-5.07-3.9-9.26-3.06-3.03.6-4.96,2.83-5.76,3.9-.15-.07-.31-.18-.36-.36-.28-.92,2.39-3.14,5.13-3.94,4.18-1.23,8.02,1.01,8.99,1.57Z"/>
    <path d="M241.79,410.24c3.12,1,5.36,2.25,6.74,3.13.39.2.44.6.16.83-.22.18-.62.24-.96.12-.76-.45-1.86-1.06-3.26-1.68-2.93-1.3-10.39-4.6-18.6-2.9-5.93,1.23-9.54,4.51-11.02,6.06-.3-.08-.63-.21-.75-.44-.65-1.21,4.43-4.58,9.77-6.04,8.16-2.23,15.95.28,17.92.91Z"/>
    <path d="M310.8,410.37c2.89,1.6,4.94,3.46,6.19,4.74.36.31.38.83.1,1.11-.22.22-.61.27-.92.08-.69-.67-1.69-1.56-2.98-2.51-2.69-1.97-9.56-7.01-17.45-5.51-5.71,1.08-9.34,5.09-10.85,7-.28-.13-.58-.33-.68-.65-.53-1.66,4.5-5.65,9.66-7.09,7.88-2.2,15.11,1.81,16.94,2.82Z"/>
    <path class="cls-15" d="M269.43,324.39c8.27-9.22,21.97-8.15,28.07-7.67,18.7,1.47,31.38,12.87,38.56,19.33,6.84,6.15,19.12,17.49,24.3,36.73.79,2.94,5.29,20.51-1.1,40.03-4.41,13.5-9.22,13.23-13.96,29.24-3.98,13.41-3.67,23.96-7.94,24.76-2.6.49-5.27-2.96-7.13-5.44-8.7-11.55-5.3-20.49-10.32-32.33-4.56-10.74-9.12-7.54-20.25-22.91-9.29-12.84-6.01-14.94-15.48-30.16-11.63-18.68-19.99-21.01-20.74-32.97-.1-1.57-.56-11.31,5.98-18.61Z"/>
    <path class="cls-15" d="M264.71,314.45c-14.31-15.65-44.03-10.06-59.73-3.76-29.41,11.81-47.25,41.2-51.34,68.25-.86,5.66-4.5,33.6,12.22,57.6,4.76,6.84,12.38,17.77,21.33,17.09,12.63-.96,12.54-23.91,30.62-51.98,24.59-38.19,55.76-43.91,54.55-68.59-.06-1.26-.67-10.98-7.65-18.61Z"/>
    <path class="cls-37" d="M172.36,399.39c-.24.76-.56,1.68-.73,1.64-.8-.16-1.25-23.94,10.25-44.51,11.17-19.98,29.57-29.67,31.52-28.77.16.07.62.29.65.63.08.88-2.86,1.79-3.37,1.96-4.17,1.4-19.73,11.85-28.84,28.91-4.29,8.04-5.85,15.13-7.16,21.05-1.68,7.64-2.2,14.23-2.33,19.08Z"/>
    <path class="cls-37" d="M182.32,426.28c-.38,1.17-.88,2.57-1.13,2.52-1.25-.24-1.95-36.66,16.02-68.14,17.45-30.59,46.19-45.42,49.23-44.05.25.11.97.44,1.02.96.12,1.35-4.47,2.75-5.26,3.01-6.51,2.14-30.83,18.14-45.05,44.26-6.71,12.32-9.15,23.16-11.18,32.23-2.63,11.69-3.44,21.79-3.64,29.22Z"/>
    <path class="cls-37" d="M200.2,419.11c-.38.87-.87,1.91-1.02,1.84-.73-.32,3.63-28.76,18.72-51.44,14.66-22.04,34.13-30.64,35.8-29.25.14.11.54.44.5.85-.1,1.07-3.09,1.68-3.6,1.8-4.25,1-21.18,10.96-33.28,29.85-5.71,8.91-8.62,17.11-11.05,23.96-3.14,8.84-4.96,16.62-6.06,22.39Z"/>
    <path class="cls-37" d="M341.69,409.32c.19.76.44,1.68.57,1.64.62-.16.98-23.94-8.02-44.51-8.74-19.98-23.13-29.67-24.66-28.77-.12.07-.49.29-.51.63-.06.88,2.24,1.79,2.64,1.96,3.26,1.4,15.44,11.85,22.57,28.91,3.36,8.04,4.58,15.13,5.6,21.05,1.32,7.64,1.72,14.23,1.82,19.08Z"/>
    <path class="cls-37" d="M333.91,436.22c.3,1.17.69,2.57.89,2.52.98-.24,1.53-36.66-12.53-68.14-13.66-30.59-36.14-45.42-38.52-44.05-.19.11-.76.44-.8.96-.1,1.35,3.5,2.75,4.12,3.01,5.1,2.14,24.12,18.14,35.25,44.26,5.25,12.32,7.16,23.16,8.75,32.23,2.06,11.69,2.69,21.79,2.85,29.22Z"/>
    <path class="cls-37" d="M320.92,428.04c.3.87.68,1.91.8,1.84.57-.32-2.84-28.76-14.65-51.44-11.47-22.04-26.7-30.64-28.02-29.25-.11.11-.42.44-.39.85.08,1.07,2.42,1.68,2.82,1.8,3.33,1,16.57,10.96,26.04,29.85,4.47,8.91,6.74,17.11,8.65,23.96,2.46,8.84,3.88,16.62,4.74,22.39Z"/>
    <path d="M246.34,487.14c-1.87,1.16.05,5.5,3.26,8.29,3.09,2.68,8.27,4.71,14.14,4.64,9.76-.11,14.96-5.93,15.76-6.83,2.08-2.33,3.66-5.75,2.35-6.92-.22-.19-.49-.32-.49-.32-.95-.35-2.49.24-5.34.86-5.37,1.16-9.61,1.13-13.26,1.1-6.08-.04-9.12-.07-12.29-.75-2.11-.45-3.33-.56-4.12-.07Z"/>
    <path class="cls-39" d="M258.43,488.92c2.68,0,6.55-.03,11.46-.1,2.74-.38,5.48-.76,8.22-1.15.88-.13,1.76-.28,2.74-.43-1.15.89-3.02,2.1-5.7,2.96-2.66.85-4.02.67-11.61.93-8.18.28-10.21.61-12.7-.54-1.79-.82-2.84-1.95-3.43-2.75,1.64.35,4.11.79,7.18.99,1.58.1,2.76.1,3.85.1Z"/>
    <path class="cls-30" d="M257.83,498.26c.34-.59,2.32-3.85,6.23-4.68,4.66-1,8.05,2.32,8.4,2.68-.89.6-1.94,1.19-3.15,1.67-4.79,1.91-9.22,1.01-11.49.33Z"/>
    <path d="M211.68,424.7c-.24.1-.56.28-.68.6-.48,1.3,2.49,4.41,5.91,4.85,2.15.28,4.09-.55,4.06-.87-.03-.4-3,.21-5.89-1.31-1.66-.87-2.72-2.19-3.4-3.28Z"/>
    <path d="M210.52,429.72c-.43.18-.61.4-.68.6-.45,1.28,2.64,4.28,6.15,4.69,2.04.24,3.85-.43,3.83-.71-.02-.35-3.02.21-5.89-1.31-1.66-.87-2.72-2.19-3.4-3.28Z"/>
    <path d="M213.16,420.18c-.25.1-.57.28-.68.6-.47,1.29,2.53,4.36,5.96,4.8,2.12.27,4.04-.51,4.01-.81-.03-.38-3.01.21-5.89-1.31-1.66-.87-2.72-2.19-3.4-3.28Z"/>
    <path d="M315.43,423.51c.44.22.6.47.65.67.33,1.45-4.05,4.65-8.09,4.07-1.49-.21-2.78-.92-2.73-1.2.09-.42,3.16.52,6.28-.66,1.82-.69,3.07-1.88,3.89-2.89Z"/>
    <path d="M316.07,428.46c.45.23.61.47.65.67.28,1.29-3.25,3.85-6.92,3.91-2.15.04-3.94-.8-3.9-1.04.05-.32,3.09.55,6.28-.66,1.82-.69,3.07-1.88,3.89-2.89Z"/>
    <path d="M317.77,433.32c.44.22.6.46.65.67.33,1.46-4.21,4.73-8.3,4.03-1.37-.23-2.57-.89-2.51-1.16.09-.43,3.17.52,6.28-.66,1.82-.69,3.07-1.88,3.89-2.89Z"/>
    <path class="cls-12" d="M217.13,459.25c2.9,2.17,6.42-2.61,13.18-1.35,4.89.91,5.87,3.94,8.24,3.06,4.74-1.77,4.47-15.18,4.4-18.96-.07-3.63-.17-7.29-1.67-11.77-.99-2.95-4.32-12.92-10.16-13.56-7.4-.82-13.21,13.96-13.47,14.62-1.82,4.76-1.95,8.69-2.19,16.02-.23,6.96-.3,10.47,1.67,11.95Z"/>
    <path class="cls-12" d="M283.2,457.06c2.13,1.9,4.76-.32,10.79.29,7.25.73,8.81,4.5,11.81,3.24,4.78-1.99,4.58-13.1,4.46-18.96-.07-3.63-.18-7.29-1.7-11.77-1-2.95-4.38-12.92-10.3-13.56-7.5-.82-13.4,13.96-13.66,14.62-.89,2.29-1.33,6.87-2.22,16.02-.67,6.82-.58,8.87.82,10.12Z"/>
    <ellipse class="cls-34" cx="229.42" cy="440.71" rx="10.98" ry="13.05"/>
    <ellipse cx="230.06" cy="440.15" rx="6.09" ry="6.69"/>
    <ellipse class="cls-27" cx="234.61" cy="438.52" rx="1.38" ry="1.97" transform="translate(-77.87 51.61) rotate(-10.78)"/>
    <ellipse class="cls-34" cx="296.36" cy="439.46" rx="10.98" ry="13.05"/>
    <ellipse cx="297" cy="438.91" rx="6.09" ry="6.69"/>
    <ellipse class="cls-27" cx="301.55" cy="437.28" rx="1.38" ry="1.97" transform="translate(-76.45 64.1) rotate(-10.78)"/>
    <path class="cls-8" d="M774.22,226.99c-9.44-10.65-19.17-4.64-37.59-15.04-5.49-3.1-11.03-6.12-16.53-9.21-7.08-3.97-10.69-6.04-12.4-4.6-1.53,1.29-1.23,5.11.34,7.44,1.72,2.54,3.57,1.24,7.26,4.63,1.48,1.36,3.7,3.77,4.7,4.76,1.06,1.04,1.21,1.16,1.67,1.71,4.55,5.55,2.21,10.82,5.06,17.99,3.11,7.83,7.54,12.46,14,19.21,8.5,8.89,14.53,15.19,20.27,13.6,2.31-.64,4.43-3.81,8.57-10.12,9.3-14.17,10.22-16.63,10.11-19.17-.23-5.3-3.6-9.1-5.45-11.19Z"/>
    <path class="cls-32" d="M708.9,206.11c-2.09-2.09-2.8-6.27-1.35-7.75,1.83-1.86,7.2.44,10.31,3.5.93.92,4.26,4.2,3.25,7.22-.59,1.77-2.61,3.23-4.14,2.91-1.07-.22-1.2-1.17-2.61-2.58-2.28-2.27-3.8-1.66-5.44-3.3Z"/>
    <path class="cls-22" d="M722.8,217.55c.53-.83,3.34,1.36,7.77,1.77.33.03,1.31.11,2.37.71.81.46,2.21,1.54,2.03,2.48-.14.71-1.12,1.02-2.37,1.42-2.02.64-3.59.52-5.41.35-1.64-.15-2.07-.37-2.37-.71-.53-.6-.39-1.21-.68-2.48-.53-2.39-1.67-3.04-1.35-3.54Z"/>
    <path class="cls-32" d="M731.25,219.32c-1.5-.43-2.25-.65-2.7-.35-1.33.87-1.08,4.58.34,5.31.24.12.42.11,1.35,0,3.81-.47,4.17-.69,4.39-1.06.4-.65.27-1.55,0-2.12-.43-.91-1.42-1.21-3.38-1.77Z"/>
    <path class="cls-22" d="M735.83,228.91c.51.02,1.88.08,3.53.71,1.21.46,3.3,1.54,3.03,2.48-.21.71-1.67,1.02-3.53,1.42-1.56.33-2.57.36-8.07.35-2.3,0-4.04-.03-4.61-1.09-.13-.24-.21-.56-.34-1.06-.24-.96-.22-1.48-.34-2.48-.21-1.79-.49-1.85-.34-2.12.67-1.19,4.79,1.62,10.67,1.8Z"/>
    <path class="cls-32" d="M736.84,228.91c-.39-.07-.6-.1-.86-.03-1.7.47-2.59,4.23-1.69,4.96.22.17.45.11,1.04.03,2.51-.34,5.44-.14,6.44-.95.04-.03.08-.07.11-.11.59-.65.4-1.55,0-2.12-.61-.86-2-1.22-5.04-1.77Z"/>
    <path class="cls-22" d="M739.02,236.67c.44,0,1.39-.03,2.7,0,2.32.05,3.48.07,4.73.35.89.2,3.96.9,4.05,2.12.1,1.25-2.93,2.61-5.07,3.19-2.28.61-4.22.5-6.76.35-2.34-.13-6.84-.59-7.1.35-.02.08-.03.23-.08.24-.16.03-.3-1.14-.93-2.37-.57-1.09-.95-1.1-1.35-2.12-.3-.77-.52-1.34-.34-1.77.53-1.24,3.85-.26,10.14-.35Z"/>
    <path class="cls-32" d="M744.73,236.58c-.42-.07-.64-.1-.92-.03-1.58.41-2.8,3.43-1.8,4.96.33.5.81.71,1.07.82.84.35,1.76.26,4.05-.71,2.35-.99,4.15-1.74,4.05-2.48-.02-.2-.17-.34-1.08-.79-2.45-1.23-4.12-1.56-5.38-1.77Z"/>
    <polygon class="cls-13" points="793.59 353.87 779.81 349.35 790.5 314.94 804.28 319.46 793.59 353.87"/>
    <polygon class="cls-13" points="817.18 351.44 805.33 347.55 813.32 321.85 825.17 325.75 817.18 351.44"/>
    <path class="cls-38" d="M762.8,374.87c-.52.04-.84-.21-.84-.21-.09-.07-.18-.17-.25-.29.36-.53.36-1.52-.07-1.8-.03.54-.05,1.04-.07,1.53-.48.38-1.89.35-2.32-.06-.06-.06-.04-.24-.03-.36.03-.41.08-.81.12-1.22-.12-.26-.24-.53-.36-.79-.05.02-.11.04-.16.06-.03.62-.05,1.24-.08,1.87-.1.13-.22.37-.31.36-.89-.12-1.78-.29-2.67-.42-.47-.07-.55-.35-.49-.76.04-.24.08-.49.12-.73.04-.26.03-.47-.07-.64-.15-.26-.45-.35-.52-.38-.72-.23-5.98-3.31-7.02-5.7-1.19-2.74,1.57-8.27,5.71-10.36,4.92-2.49,7.06.49,15.31-2.11,2.35-.74,8.88-2.8,9.77-7.07.19-.93.22-2.06.83-2.43.47-.28,1.58,0,4.47,3.06.06.05.16.15.29.26,4.45,3.79,10.99.94,12.02,3.03.38.76-.42,1.3-.94,3.3-.76,2.94.16,4.87.76,7.94.43,2.2,1.98,10.16-1.64,13.8-.76.77-1.98,1.56-3.97,1.89-.06-.62-.12-1.24-.19-1.86q-1-.06-1.07,1.7h-2.55v-2.03c-.43-.1-.73-.1-.97.03-.33.18-.36.49-.56.73-.51.63-1.9.56-2.58.13-1.05-.68-1.38-2.87-.18-5.12-3.65,0-7.3.01-10.96.02.12.39.37,1.37-.01,2.47,0,0-.6,1.71-2.33,2.25-.15.05-.47.13-.76,0-.11-.05-.23-.14-.33-.29-.12-.17-.75.03-1.15.07-.05-1.62-.33-2.1-.62-2.18-.76-.21-2.28,2.23-3.35,2.3Z"/>
    <path class="cls-36" d="M757.82,355.9c-4.27,2.4-7.34,8.34-5.86,11.33,1.4,2.82,7.36,2.7,19.29,2.48,7.02-.13,6.83-.67,11.02-.35,6.99.53,10.97,2.3,12.4.35.54-.73.24-2.61-.34-6.37-.69-4.43-1.04-4.46-1.03-6.37,0-4,1.64-5.41.69-6.73-1-1.39-2.91.01-6.54-1.06-4-1.18-5.43-3.98-7.23-3.19-.89.39-.94,1.25-1.72,2.56-1.57,2.65-4.09,3.78-6.55,4.87-6.68,2.98-9.62-.05-14.12,2.48Z"/>
    <polygon points="778.84 347.33 777.94 348.56 781.93 351.65 782.83 350.42 778.84 347.33"/>
    <polygon points="775.87 350.48 774.77 351.81 779.31 355.76 780.41 354.42 775.87 350.48"/>
    <ellipse cx="782.27" cy="350.94" rx="1.03" ry="1.42"/>
    <ellipse cx="771.25" cy="359.79" rx="1.03" ry="1.42"/>
    <ellipse cx="779.86" cy="355.19" rx="1.03" ry="1.42"/>
    <ellipse cx="775.73" cy="357.67" rx="1.03" ry="1.42"/>
    <polygon points="773.21 352.23 771.78 353.19 775.03 358.3 776.45 357.34 773.21 352.23"/>
    <polygon points="769.24 353.95 767.76 354.83 770.73 360.12 772.21 359.24 769.24 353.95"/>
    <path class="cls-38" d="M825.53,378.16c-.3-.01-.71.36-1.24,1.88-.37-.16-.91-.55-1.07-.42-.14.11-.28.16-.4.18-.32.03-.6-.14-.73-.24-1.49-1.06-1.55-2.88-1.55-2.88-.04-1.17.49-2.03.72-2.36-3.48-1.15-6.95-2.3-10.43-3.45.48,2.51-.48,4.5-1.69,4.82-.78.2-2.12-.17-2.42-.93-.11-.29-.05-.6-.32-.87-.19-.19-.47-.29-.91-.33l-.6,1.93-2.43-.8q.46-1.69-.51-1.95c-.24.57-.49,1.15-.73,1.72-1.8-.93-2.72-2.07-3.22-3.04-2.37-4.6,1.46-11.69,2.52-13.66,1.48-2.74,2.93-4.29,3.08-7.33.1-2.07-.5-2.83.08-3.44,1.6-1.67,6.99,3.09,12.35.87.16-.07.28-.12.35-.16,3.66-2,4.8-1.93,5.17-1.51.47.54.16,1.63.07,2.57-.41,4.34,5.2,8.35,7.21,9.79,7.09,5.06,10,2.89,13.96,6.8,3.32,3.28,4.32,9.42,2.37,11.65-1.69,1.94-7.62,3.23-8.37,3.23-.08,0-.39,0-.61.19-.14.13-.22.33-.25.59-.03.25-.06.49-.1.74-.06.4-.23.65-.69.57-.89-.15-1.78-.27-2.66-.43-.09-.02-.13-.29-.19-.44.16-.6.32-1.2.48-1.8-.05-.04-.09-.07-.14-.11-.19.21-.38.43-.57.64-.08.4-.16.8-.24,1.2-.03.12-.05.3-.13.34-.53.26-1.89-.16-2.23-.67.12-.48.25-.96.38-1.48-.49.14-.78,1.07-.6,1.69-.1.1-.21.16-.32.2,0,0-.37.14-.86-.06-1-.41-1.72-3.2-2.51-3.24Z"/>
    <path class="cls-36" d="M838.41,364.88c3.36,3.62,4.52,10.24,2.22,12.63-2.16,2.25-7.81.27-19.11-3.67-6.65-2.32-6.31-2.78-10.4-3.79-6.82-1.69-11.13-1.24-11.92-3.54-.3-.87.54-2.57,2.21-5.96,1.97-4,2.31-3.92,2.87-5.75,1.18-3.82.04-5.66,1.34-6.62,1.36-1.01,2.77.92,6.55,1.04,4.16.13,6.36-2.1,7.83-.77.73.65.53,1.48.88,2.98.71,3.02,2.78,4.88,4.79,6.69,5.48,4.93,9.18,2.96,12.72,6.78Z"/>
    <polygon points="820.91 350.14 821.41 351.6 816.69 353.29 816.2 351.83 820.91 350.14"/>
    <polygon points="822.81 354.07 823.46 355.69 817.97 358.02 817.32 356.41 822.81 354.07"/>
    <ellipse cx="816.58" cy="352.51" rx="1.41" ry="1.04" transform="translate(250.29 1038.35) rotate(-73.8)"/>
    <ellipse cx="824.46" cy="364.39" rx="1.41" ry="1.04" transform="translate(244.56 1054.48) rotate(-73.8)"/>
    <ellipse cx="817.62" cy="357.31" rx="1.41" ry="1.04" transform="translate(246.43 1042.81) rotate(-73.8)"/>
    <ellipse cx="820.82" cy="360.96" rx="1.41" ry="1.04" transform="translate(245.23 1048.52) rotate(-73.8)"/>
    <polygon points="824.83 356.57 825.9 357.93 821.3 361.78 820.22 360.43 824.83 356.57"/>
    <polygon points="828.1 359.46 829.25 360.75 824.85 364.86 823.71 363.57 828.1 359.46"/>
    <g>
      <path class="cls-19" d="M759.54,177.07c17.4-15.02,46.93-1.32,55.12,2.48,5.74,2.66,8.91,5.01,10.85,8.68,5.38,10.2-2.35,23.92-3.53,26.02-1.33,2.36-.89,1.21-10.76,13.11-8.57,10.32-8.92,11.27-11.54,12.57-8.49,4.2-17.7.58-18.26.35-1.84-.75-4.5-2.57-9.82-6.2-3.11-2.12-4.14-2.99-5.17-4.25-2.57-3.16-1.61-4.54-3.79-8.5-1.13-2.05-3.85-4.79-9.3-10.27-3.04-3.06-3.25-3.13-3.69-4.01,0,0-.13-.27-.25-.55-.53-1.29-1.78-6.19-.02-12.61,2.89-10.54,10.16-16.82,10.16-16.82Z"/>
      <path class="cls-1" d="M788.99,238.86c9.73-.21,13.27-7.9,17.91-6.02,4.52,1.82,2.14,9.48,6.54,21.25,2.92,7.82,5.09,7.42,17.91,26.2,9.7,14.21,10.68,17.68,11.02,20.89.14,1.27,1.27,13.29-6.2,20.89-11.62,11.83-34.24,2.97-42.71-.35-5.56-2.18-11.31-4.51-16.53-10.27-5.11-5.63-6.8-11.74-9.99-23.73-4.11-15.46-6.28-23.64-3.79-33.99.83-3.44,3.75-15.58,11.37-17.71,5.04-1.41,7.03,2.99,14.47,2.83Z"/>
      <path class="cls-25" d="M765.05,277.28c1.15-1.39,5.25.39,7.58,1.42,17.65,7.82,26.63,11.7,27.9,17.71,1.04,4.93-1.72,6.49,0,10.98,2.95,7.68,13.05,8.39,12.75,11.33-.26,2.47-7.67,4.43-14.47,3.9-11.83-.93-19.47-8.97-20.32-9.92-3.53-3.88-5.34-8.61-8.96-18.06-3.13-8.19-1.11-6.27-3.79-13.1-.65-1.66-1.4-3.38-.69-4.25Z"/>
      <path class="cls-25" d="M783.44,258.23v.38c-.12.33-.31.92-.48,1.67-.94,4.23.59,6.66.26,11.39-.05.74-.17,1.89-.51,3.3-3.36.3-6.72.59-10.09.89-1-.19-2.01-.37-3.01-.56-.61-1.67-.82-3.06-.9-3.99-.33-3.75.95-5.6.47-9.26-.19-1.46-.59-2.61-.87-3.31.9.47,2.26,1.02,3.97,1.19.77.08,1.47.06,2.07,0,1.2,0,2.6-.1,4.13-.35,1.95-.33,3.61-.83,4.96-1.35ZM782.05,274.78s.03-.03.04-.04c-.01-.01-.03-.03-.04-.04-.01.02-.03.04-.04.06.01,0,.03.01.04.02Z"/>
      <path class="cls-33" d="M778.55,246.6c.44.78.45,1.56.43,1.91.19,0,.74.03,1.23.44.1.08.76.64.69,1.42-.09.98-1.27,1.38-1.38,1.42-.6.19-1.12.06-1.35-.01-.49,3.51-.74,6.11-.74,6.79,0,.59,0,.89.14,1.21.11.24.24.4.18.57-.07.2-.37.25-.68.32-1.27.28-1.46.66-1.81.47-.44-.24-.45-1.05-.44-1.34.24-.95.45-2.09.55-3.39.14-1.84,0-3.42-.2-4.66-1.11.65-2.41.26-2.87-.62-.35-.66-.21-1.57.32-2.16.61-.69,1.47-.65,1.59-.65-.05-.24-.19-1.08.28-1.92.07-.13.74-1.3,1.92-1.33,1.25-.02,1.98,1.27,2.13,1.54ZM777.38,246.82c-.09-.76-.35-.99-1.14-.95-.55.02-.79.43-.57.96.09.21.16.43.27.63.11.2.23.48.39.53.19.05.51-.06.63-.22.2-.26.28-.62.42-.94ZM773.98,249.31c-.67,0-.96.28-.98.91-.01.47.47.98.94.99.47.01.62-.29.47-1.84,0-.08-.15-.07-.15-.07-.13-.04-.24-.01-.29,0ZM779.55,249.44c-.58,0-1.13.51-1.13,1.05,0,.49.26.73.72.73.51,0,.97-.59.99-1.23.01-.47-.24-.58-.58-.55Z"/>
    </g>
    <g>
      <g>
        <path class="cls-14" d="M868.39,379.27c-6.96-4.74-12.51-9.14-16.58-12.56-6.58-5.54-9-8.31-10.88-10.82-3.9-5.23-5.76-9.81-6.25-11.05-1.79-4.58-3.65-9.32-2.95-15.26.89-7.56,5.42-12.68,7.59-14.82.74,2.18,1.86,5.53,3.22,9.63,6.01,18.13,5.94,18.96,7.92,23.02.6,1.22,3.61,6.12,9.65,15.94,2.87,4.67,3.53,5.67,4.82,7.08,1.43,1.56,2.92,2.84,10.33,9.21,1.95,1.67,2.92,2.52,2.76,2.83-.35.68-5.17-1.24-9.65-3.19Z"/>
        <path class="cls-16" d="M862.05,369.39c-.19-1.52-.4-2.76-.55-3.56,2.2,3.48,4.4,5.88,6.07,7.46,1.31,1.24,2.28,1.98,7.71,6.69.94.82,1.72,1.49,2.24,1.95.32.22.36.31.34.35-.13.33-4.25-.67-8.1-2.66-1.46-.76-2.52-1.51-4.65-3.01-1.99-1.41-2.33-1.81-2.58-2.3-.69-1.32-.17-2.33-.48-4.92Z"/>
      </g>
      <g>
        <path class="cls-14" d="M839.63,312.52c3.12-1.19,8.72,6.83,12.06,11.69,10.36,15.06,8.62,19.42,16.19,27.62,7.42,8.04,16.21,11.37,15.85,12.04-.34.63-7.71-2.94-8.96-3.54-2.94-1.42-6.48-3.14-9.65-5.31-4.27-2.93-7.15-6.66-12.74-14.01-8.57-11.25-6.66-15-11.72-19.28-.76-.64-2.99-2.43-3.1-4.96-.07-1.67.77-3.75,2.07-4.25Z"/>
        <path class="cls-16" d="M869.94,354.66c-.14.1-.02.31-.22.76-.28.65-.76.76-.82,1.01-.21.96,4.04,2.72,5.17,3.19,5.85,2.45,9.22,4.43,9.3,4.25.07-.16-1.87-1.15-6.54-4.25-1.75-1.17-2.63-1.75-3.1-2.12-1.85-1.49-3.36-3.15-3.79-2.83Z"/>
      </g>
      <g>
        <path class="cls-14" d="M839.63,296.94c1.43-.97,7.83,5.36,13.28,11.07,14.91,15.6,17.8,21.04,29.17,32.1,5.01,4.87,6.16,6.05,6.13,6.08-.04.04-2.24-2.33-5.83-4.51-1.68-1.02-3.02-1.59-3.48-1.81-6.11-2.81-16.93-9.77-24.23-14.54-12.61-8.22-14.65-10.22-14.97-12.92-.28-2.36.94-3.61.67-8.43-.25-4.45-1.48-6.52-.73-7.03Z"/>
        <path class="cls-16" d="M865.34,325.16c-.84.38-1.26,1.79-1.13,2.99.25,2.33,2.42,3.98,5.78,6.46,2.71,2,4.94,3.15,7.77,4.59,1.37.7,5.42,2.76,5.65,2.38.24-.41-3.01-2.42-7.67-7.05-.28-.28-.18-.18-4.49-4.59-3.37-3.44-5.07-5.15-5.89-4.78Z"/>
      </g>
      <g>
        <path class="cls-14" d="M838.77,291.45c1.36-1.7,7.03,1.62,12.75,3.9,12.38,4.92,23.82,6.14,37.72,7.61,6.14.79,7.58,1.02,7.58,1.06,0,.06-2.83-.48-6.54,0-1.74.22-3,.59-3.44.71-5.34,1.4-16.65,2.78-24.97,3.36,0,0-14.57,1.02-19.46-2.66-1.66-1.25-2.41-2.83-2.41-2.83-.7-1.47-.55-2.51-.69-4.96-.27-4.66-1.09-5.48-.52-6.2Z"/>
        <path class="cls-16" d="M869.41,301.36c-.32.66.81,1.35.76,3.09-.04,1.42-.83,1.88-.58,2.4.45.92,3.24.09,8.1-.71,3.88-.64,4.55-.52,7.96-1.24,2.11-.45,5.33-1.13,5.29-1.59-.04-.47-3.42-.07-9.19-.89-.35-.05-.23-.04-5.62-.89-4.22-.66-6.33-.98-6.73-.18Z"/>
      </g>
    </g>
    <path class="cls-8" d="M810.62,239.02c1.42-.87,3.78,3.6,9.48,5.92,1.45.59,6.53,2.44,18.44-1.01,6.46-1.87,11.65-4.66,21.73-10.29,9.1-5.07,13.65-7.61,17.31-11.08,6.39-6.06,9.41-11.74,10.73-11.03,1.1.59.23,5.23-1.52,8.74-1.04,2.09-2.2,3.41-6.63,7.88-5.83,5.89-5.67,5.49-6.49,6.47-4.64,5.55-2.26,10.82-5.16,17.99-3.17,7.83-7.69,12.46-14.27,19.21-8.66,8.89-14.81,15.19-20.66,13.6-2.36-.64-4.52-3.81-8.74-10.12-6.42-9.6-9.48-17.09-10.31-19.17-1.18-2.96-6.24-15.69-3.92-17.11Z"/>
    <path class="cls-32" d="M884.59,223.44c2.24-2.83,3.02-5.74,3.47-7.48.29-1.14,1.14-4.22.43-4.58-.43-.22-1.26.68-2.63,2.23-3.48,3.95-4.43,5.32-5.84,6.89-3.7,4.12-5.95,4.46-5.77,6.18.17,1.7,2.56,3.27,4.22,2.91.87-.19,1.19-.86,2.67-2.58,2.06-2.41,2.21-2,3.45-3.57Z"/>
    <path class="cls-22" d="M872.52,235.5c-.54-.83-3.41,1.36-7.92,1.77-.34.03-1.34.11-2.41.71-.83.46-2.25,1.54-2.07,2.48.14.71,1.14,1.02,2.41,1.42,2.06.64,3.66.52,5.51.35,1.67-.15,2.11-.37,2.41-.71.54-.6.4-1.21.69-2.48.54-2.39,1.7-3.04,1.38-3.54Z"/>
    <path class="cls-32" d="M863.91,237.27c1.53-.43,2.3-.65,2.76-.35,1.36.87,1.1,4.58-.34,5.31-.25.12-.43.11-1.38,0-3.88-.47-4.25-.69-4.48-1.06-.4-.65-.28-1.55,0-2.12.44-.91,1.45-1.21,3.44-1.77Z"/>
    <path class="cls-22" d="M859.24,246.86c-.52.02-1.92.08-3.6.71-1.24.46-3.36,1.54-3.08,2.48.21.71,1.7,1.02,3.6,1.42,1.59.33,2.62.36,8.23.35,2.34,0,4.12-.03,4.7-1.09.13-.24.22-.56.34-1.06.25-.96.22-1.48.34-2.48.22-1.79.5-1.85.34-2.12-.68-1.19-4.88,1.62-10.88,1.8Z"/>
    <path class="cls-32" d="M858.21,246.86c.4-.07.61-.1.88-.03,1.74.47,2.64,4.23,1.72,4.96-.22.17-.46.11-1.06.03-2.56-.34-5.55-.14-6.57-.95-.04-.03-.08-.07-.11-.11-.6-.65-.41-1.55,0-2.12.62-.86,2.04-1.22,5.14-1.77Z"/>
    <path class="cls-22" d="M855.99,254.62c-.45,0-1.41-.03-2.76,0-2.36.05-3.55.07-4.82.35-.91.2-4.03.9-4.13,2.12-.1,1.25,2.98,2.61,5.17,3.19,2.32.61,4.3.5,6.89.35,2.38-.13,6.98-.59,7.23.35.02.08.03.23.08.24.16.03.3-1.14.95-2.37.58-1.09.97-1.1,1.38-2.12.31-.77.53-1.34.34-1.77-.54-1.24-3.93-.26-10.33-.35Z"/>
    <path class="cls-32" d="M850.17,254.54c.43-.07.65-.1.94-.03,1.62.41,2.86,3.43,1.84,4.96-.34.5-.83.71-1.09.82-.86.35-1.79.26-4.13-.71-2.4-.99-4.23-1.74-4.13-2.48.02-.2.18-.34,1.1-.79,2.49-1.23,4.2-1.56,5.48-1.77Z"/>
    <g>
      <path class="cls-7" d="M768.32,171.93c-2.76-1.17-4.61.99-12.75,4.25-8.35,3.34-14.27,4.21-14.12,5.31.09.63,2.12,1.04,3.44,1.06,1.51.03,2.74-.43,2.76-.35.03.13-3.84,1-3.79,1.77.02.29.6.6,3.44,1.06,4.42.72,6.54.71,6.54.71,11.4-.07,17.1-.11,18.6-2.83,1.78-3.24-.47-9.42-4.13-10.98Z"/>
      <path class="cls-11" d="M826.88,210.18c2.71-2.78,7.85-8.2,10.68-17,2.38-7.4,3.84-19.42,0-21.25-3.41-1.62-10.85,4.92-14.12,12.39-2.17,4.96-.9,6.65-2.41,13.81-2.81,13.3-9.81,19.78-8.27,21.25,1.51,1.43,9.03-3.96,14.12-9.21Z"/>
    </g>
    <g>
      <path class="cls-17" d="M770.73,168.39c-3.34,2.03-4.8,2.01-5.51,3.54-1.76,3.78,3.66,11.34,9.65,15.58,11.43,8.09,25.81,4.73,32.38,3.19,8.18-1.92,18.8-4.4,19.63-9.92,1.71-11.26-38.27-28.91-47.19-20.54-1.46,1.37-3.73,4.96-8.96,8.14Z"/>
      <path class="cls-17" d="M779.69,159.9l5.17,7.44c4.02,2.83,8.04,5.67,12.06,8.5,6.54,2.24,13.09,4.49,19.63,6.73,2.49.53,4.97,1.06,7.46,1.59.56-.18,12.73-4.37,14.93-15.4,2.32-11.66-8.57-20.58-10.68-22.31-4.79-3.92-9.88-5.34-12.4-6.02-5.68-1.52-10.21-1.26-13.09-1.06-7.99.54-15.92,1.07-20.32,7.08-1.99,2.72-3.41,8.11-2.77,13.38,0,.03,0,.06,0,.08Z"/>
      <path class="cls-14" d="M812.07,145.38c.04-.52.29-3.08,2.21-4.37.42-.28.82-.44,1.11-.53.81.09,1.45.22,1.84.3,5.86,1.23,8.4,4.46,10.23,5.15.12.05.55.2.65.54.06.2-.01.44-.2.72-3.38,5.02-6.89,5.63-6.89,5.63-.83.14-2.98.52-5.17-.71-2.26-1.27-3.99-3.95-3.79-6.73Z"/>
    </g>
    <path class="cls-23" d="M779.52,220.98c-4.15-.42-4.71.94-7.51.06-.79-.25-3.49-1.09-4.66-3.45-1.17-2.36.57-3.47.23-7.87-.33-4.22-2.12-5.61-1.02-7.56.72-1.26,2.08-1.76,2.29-3.5.09-.75-.12-1.04.11-1.86.39-1.4,1.44-2.17,1.64-2.31.85-.6,1.69-.71,2.38-.78,2.08-.23,2.54.59,5.17.71,1.66.07,1.79-.24,2.72.07,1.18.39,1.29.99,2.79,1.65,1.25.54,1.38.22,2.41.75,1.06.55,1.71,1.3,2.41,2.12.26.3.47.57,1.63,2.32,1.83,2.77,2.05,3.22,2.19,3.87.19.91,0,1.17-.09,2.68-.19,3.44.74,3.77.41,5.68-.34,1.92-1.55,3.17-3.71,5.37-1.45,1.48-2.18,2.22-3.33,2.63-1.95.69-2.81-.26-6.05-.59Z"/>
    <path class="cls-12" d="M787.05,199.69c-.79-.89-1.59-1.33-2.79-2-1.88-1.03-3.2-1.76-4.91-1.67-3.28.16-5.34,3.18-5.68,3.69-.35.53-1.04,1.71-1.4,3.88-.66,3.97-.13,10.69,3.17,12.07,2.06.86,3.24-1.19,7.68-.91.54.03,1.54.13,2.58-.41,1.12-.58,1.76-1.62,2.11-2.4.58-1.26,1.4-3.51,1.23-6.36-.08-1.41-.23-3.91-1.98-5.9Z"/>
    <ellipse class="cls-31" cx="783.48" cy="208.94" rx="4.99" ry="5.67"/>
    <ellipse cx="786.58" cy="210.36" rx="1.55" ry="1.77"/>
    <path class="cls-23" d="M756.35,210.81c-1.2-.04-5-.33-6.46-2.93-.56-1-.56-2.24-.56-4.74,0-2.97.49-3.14.43-6.23,0-.05-.03-1.46.08-3.34.09-1.71.21-2.13.44-2.51.35-.57.87-.88,2.98-1.53,3.1-.94,4.68-1.41,6.36-1.01.88.21,1.56.56,1.98.8.16-.1.99-.62,1.75-.29.32.14.5.38.58.48.91,1.19.16,4.25.09,4.54.16,1.28.37,3.39.3,5.53-.02.66-.07,1.39-.37,2.24-.37,1.07-.72,1.13-1.04,1.92-.73,1.79.52,2.76-.07,4.61-.43,1.33-1.47,2.05-1.72,2.22-2.05,1.38-4.51.34-4.78.22Z"/>
    <path class="cls-12" d="M760.4,199.2c.35-2.33.61-4.23-.44-6.13-.15-.28-1.73-3.02-4.32-3.04-1.48-.01-2.6.88-3.1,1.27-.34.27-1.37,1.11-1.88,2.55-.37,1.04-.3,1.9-.27,2.53.19,4.57-1.59,5.86-.68,8.9.19.63.57,1.61,1.46,2.71,1.37,1.39,3.24,1.85,4.67,1.17.93-.44,1.43-1.25,1.64-1.67,1.93-3.37,2.64-6.37,2.93-8.3Z"/>
    <ellipse class="cls-31" cx="755.4" cy="201.86" rx="3.79" ry="5.67"/>
    <ellipse cx="757.76" cy="203.27" rx="1.18" ry="1.77"/>
    <g>
      <path d="M778.14,191.94c4.58,1.07,5.41,1.04,7.41,1.81,1.93.74,3.49,1.34,4.98,2.89,2.02,2.11,3.02,5.02,2.94,5.07-.02.01-.1-.1-.17-.21-2.16-4.35-4.81-6.04-6.2-6.73-1.12-.56-3.17-1.33-5.51-1.77-1.39-.26-2.77-.38-4.82-1.06-.97-.32-1.74-.66-2.25-.89.82.21,2.08.53,3.63.89Z"/>
      <path d="M764.71,188.4c-1.81-.77-3.35-.9-4.69-1.02-.9-.08-1.25-.04-4.8.09-1.57.06-2.84.11-3.64.13v-.38c.39,0,1.01,0,1.76-.01,5.6-.06,6.69-.31,8.5-.01,1.24.2,3.04.7,5.12,2.06.09.08.18.17.17.2-.06.11-1.37-.62-2.41-1.06Z"/>
    </g>
    <g>
      <path class="cls-13" d="M753.26,221.77l10.24,1.15c.45,1.61.9,3.22,1.34,4.84-.09.78-.33,1.37-.55,1.79-1.5,2.78-5.24,2.92-5.61,2.93-4.49,1.23-8.33.6-9.65-.71-.74-.73-1.57-2.53-2.3-3.3-.07-.07-.3-.31-.25-.53.06-.22.39-.31.48-.33.84-.23,5.65-2.16,6.28-4.7.05-.22.12-.61.02-1.15Z"/>
      <path class="cls-13" d="M765.29,228.12c-.51-.41-1.29-1.02-2.27-1.7-1.13-.78-4.46-3-11.01-5.36-3.78-1.36-5.67-2.05-7.96-2.26-4.97-.47-7.9.96-8.59,1.33-.83.43-1.47.88-1.9,1.21-.01-.29-.02-.7,0-1.19,0,0,.13-2.14,1.07-4.23,1.1-2.44,4.1-5.86,7.94-6.86,1.72-.45,4.62-.67,5.77-1.35.11-.06.54-.33,1.1-.3.56.03.96.34,1.09.44,1.67,1.26,3.69,1.59,6.78,4.46,4.65,4.33,6.39,9.49,7.09,11.64.54,1.67.84,3.1,1.01,4.07-.04.04-.08.08-.11.12Z"/>
    </g>
  </g>
</svg>